<svg xmlns="http://www.w3.org/2000/svg" xmlns:xlink="http://www.w3.org/1999/xlink" width="2000" zoomAndPan="magnify" viewBox="0 0 1500 1499.999933" height="2000" preserveAspectRatio="xMidYMid meet" version="1.0"><defs><clipPath id="559433623b"><path d="M 400.546875 693.667969 L 404.296875 693.667969 L 404.296875 806.332031 L 400.546875 806.332031 Z M 400.546875 693.667969 " clip-rule="nonzero"/></clipPath><clipPath id="fccfaf5225"><path d="M 0.546875 0.667969 L 4.296875 0.667969 L 4.296875 113.332031 L 0.546875 113.332031 Z M 0.546875 0.667969 " clip-rule="nonzero"/></clipPath><clipPath id="a9559ea485"><rect x="0" width="5" y="0" height="114"/></clipPath></defs><path fill="#f8fbff" d="M 711.824219 29.164062 C 735.449219 15.902344 764.542969 15.902344 788.136719 29.164062 C 904.890625 94.691406 1256.222656 291.933594 1373.011719 357.460938 C 1396.640625 370.683594 1411.1875 395.183594 1411.1875 421.699219 C 1411.1875 552.753906 1411.1875 947.207031 1411.1875 1078.261719 C 1411.1875 1104.777344 1396.640625 1129.277344 1373.011719 1142.535156 C 1256.257812 1208.0625 904.925781 1405.304688 788.136719 1470.832031 C 764.507812 1484.089844 735.417969 1484.089844 711.824219 1470.832031 C 595.070312 1405.304688 243.734375 1208.0625 126.949219 1142.535156 C 103.355469 1129.277344 88.808594 1104.8125 88.808594 1078.292969 C 88.808594 947.242188 88.808594 552.789062 88.808594 421.734375 C 88.808594 395.21875 103.355469 370.71875 126.984375 357.460938 C 243.699219 291.933594 595.105469 94.691406 711.824219 29.164062 Z M 711.824219 29.164062 " fill-opacity="1" fill-rule="nonzero"/><path fill="#f8fbff" d="M 99.386719 1112.050781 C 90.132812 1099.660156 88.808594 1087.898438 88.808594 1072.066406 C 88.808594 941.777344 88.808594 549.585938 88.808594 419.265625 C 88.808594 392.886719 103.320312 368.527344 126.878906 355.371094 C 243.214844 290.226562 593.363281 94.132812 709.699219 28.953125 C 733.257812 15.765625 765.167969 16.042969 788.730469 29.230469 C 905.0625 94.375 1254.03125 288.800781 1370.367188 353.945312 C 1379.761719 359.234375 1386.929688 365.601562 1393.332031 373.988281 Z M 99.386719 1112.050781 " fill-opacity="1" fill-rule="nonzero"/><path fill="#3f577d" d="M 749.996094 262.804688 C 480.996094 262.804688 262.804688 480.996094 262.804688 749.996094 C 262.804688 1018.996094 480.996094 1237.1875 749.996094 1237.1875 C 1018.996094 1237.1875 1237.1875 1018.996094 1237.1875 749.996094 C 1237.1875 480.996094 1018.996094 262.804688 749.996094 262.804688 Z M 749.996094 993.59375 C 615.671875 993.59375 506.402344 884.324219 506.402344 749.996094 C 506.402344 615.671875 615.671875 506.402344 749.996094 506.402344 C 884.324219 506.402344 993.59375 615.671875 993.59375 749.996094 C 993.59375 884.324219 884.324219 993.59375 749.996094 993.59375 Z M 749.996094 993.59375 " fill-opacity="1" fill-rule="nonzero"/><path fill="#f8fbff" d="M 1393.265625 374.335938 C 1411.222656 391.144531 1410.871094 416.480469 1410.871094 436.421875 C 1410.871094 568.484375 1409.757812 944.109375 1411.1875 1076.171875 C 1411.324219 1089.953125 1406.765625 1104.464844 1399.945312 1115.390625 L 735.832031 749.996094 Z M 1393.265625 374.335938 " fill-opacity="1" fill-rule="nonzero"/><path fill="#3f577d" d="M 1097.992188 610.800781 L 1132.789062 610.800781 L 1132.789062 889.195312 L 1097.992188 889.195312 Z M 1202.390625 610.800781 L 1237.1875 610.800781 L 1237.1875 889.195312 L 1202.390625 889.195312 Z M 1202.390625 610.800781 " fill-opacity="1" fill-rule="nonzero"/><path fill="#3f577d" d="M 1028.390625 784.796875 L 1306.789062 784.796875 L 1306.789062 819.597656 L 1028.390625 819.597656 Z M 1028.390625 680.398438 L 1306.789062 680.398438 L 1306.789062 715.199219 L 1028.390625 715.199219 Z M 1028.390625 680.398438 " fill-opacity="1" fill-rule="nonzero"/><g clip-path="url(#559433623b)"><g transform="matrix(1, 0, 0, 1, 400, 693)"><g clip-path="url(#a9559ea485)"><g clip-path="url(#fccfaf5225)"><path fill="#3f577d" d="M 0.546875 0.667969 L 4.296875 0.667969 L 4.296875 113.328125 L 0.546875 113.328125 Z M 0.546875 0.667969 " fill-opacity="1" fill-rule="nonzero"/></g></g></g></g></svg>